<svg width="29" height="28" viewBox="0 0 29 28" fill="none" xmlns="http://www.w3.org/2000/svg">
<path d="M5.18217 14.3736C5.61954 14.313 6.02352 14.6189 6.08452 15.0562C6.33156 16.8343 7.12585 18.4919 8.35698 19.7984C9.58819 21.1049 11.1962 21.9961 12.9566 22.3482C14.7168 22.7001 16.5433 22.4956 18.1822 21.7632C19.2944 21.2661 20.2819 20.5411 21.0874 19.6441C20.9182 19.3489 20.8257 19.0127 20.8257 18.6665C20.8258 18.1451 21.0332 17.6447 21.4019 17.2759C21.7707 16.9073 22.2711 16.6997 22.7925 16.6997C23.314 16.6998 23.8144 16.9072 24.1831 17.2759C24.5519 17.6447 24.7592 18.1451 24.7593 18.6665C24.7593 19.188 24.5518 19.6884 24.1831 20.0572C23.8144 20.4259 23.314 20.6333 22.7925 20.6333C22.6549 20.6333 22.5189 20.6174 22.3863 20.5894C21.4125 21.7095 20.2031 22.6125 18.8345 23.2242C16.8925 24.092 14.728 24.3337 12.6421 23.9165C10.5564 23.4993 8.65176 22.444 7.19291 20.896C5.82509 19.4445 4.91295 17.6272 4.56303 15.6695L4.50053 15.2769L4.49272 15.1949C4.47797 14.7899 4.77212 14.4306 5.18217 14.3736ZM14.6255 9.69974C15.7659 9.69981 16.8602 10.1532 17.6665 10.9595C18.4727 11.7658 18.9262 12.8594 18.9263 13.9995C18.9263 15.1399 18.4728 16.2342 17.6665 17.0406C16.8602 17.8469 15.7658 18.2993 14.6255 18.2994C13.4853 18.2993 12.3918 17.8468 11.5855 17.0406C10.7791 16.2342 10.3257 15.14 10.3257 13.9995C10.3259 12.8593 10.7792 11.7658 11.5855 10.9595C12.3918 10.1534 13.4853 9.69983 14.6255 9.69974ZM14.6255 11.2994C13.9097 11.2994 13.2226 11.5843 12.7164 12.0904C12.2102 12.5966 11.9264 13.2837 11.9263 13.9995C11.9263 14.7155 12.2102 15.4024 12.7164 15.9087C13.2226 16.415 13.9096 16.6997 14.6255 16.6997C15.3415 16.6997 16.0284 16.415 16.5347 15.9087C17.0409 15.4024 17.3257 14.7155 17.3257 13.9995C17.3256 13.2836 17.0409 12.5966 16.5347 12.0904C16.0284 11.5843 15.3414 11.2994 14.6255 11.2994ZM10.0933 4.92338C11.897 4.04218 13.92 3.71052 15.9107 3.96928C18.1402 4.25708 20.2147 5.26929 21.8121 6.85111C23.3094 8.33397 24.3106 10.2402 24.6851 12.3072L24.7515 12.7232L24.7593 12.8042C24.7744 13.2093 24.4799 13.5682 24.0699 13.6255C23.6322 13.6864 23.2274 13.3805 23.1665 12.9429C22.9052 11.064 22.034 9.32262 20.6861 7.98783C19.3381 6.65294 17.5881 5.7981 15.7066 5.55521H15.7056C14.0255 5.33662 12.3178 5.61718 10.7955 6.36088C9.79258 6.8509 8.89955 7.52875 8.16069 8.35111C8.33166 8.64739 8.42626 8.98554 8.42631 9.33353C8.42619 9.85483 8.21868 10.3555 7.85014 10.7242C7.48146 11.0928 6.98087 11.2992 6.45952 11.2994C5.93811 11.2994 5.43767 11.0927 5.06889 10.7242C4.70019 10.3554 4.49284 9.85495 4.49272 9.33353C4.4928 8.81208 4.70018 8.31165 5.06889 7.94291C5.43769 7.57426 5.93805 7.36674 6.45952 7.36674C6.59434 7.36678 6.72789 7.38081 6.85795 7.40775C7.75473 6.37591 8.85366 5.52906 10.0933 4.92338Z" fill="white"/>
</svg>
