<svg width="29" height="28" viewBox="0 0 29 28" fill="none" xmlns="http://www.w3.org/2000/svg">
<path d="M14.874 2.7002C16.6699 2.7002 17.7937 3.63126 18.4219 4.79785C18.8985 5.68294 19.0899 6.69752 19.1494 7.54785C20.3168 7.88089 21.8284 8.4241 23.1348 9.14258C23.9016 9.56433 24.6364 10.0674 25.1895 10.6523C25.7408 11.2355 26.1737 11.9692 26.1738 12.833C26.1738 13.5707 25.795 14.1388 25.333 14.54C24.8813 14.9322 24.3041 15.2102 23.7471 15.4092C23.2467 15.5879 22.7167 15.7161 22.2246 15.8057C22.2628 15.8492 22.3013 15.8946 22.3418 15.9404C22.8032 16.4628 23.3799 17.0973 23.9287 17.7598C24.4781 18.423 25.0271 19.1465 25.4414 19.8711C25.8476 20.5815 26.1738 21.377 26.1738 22.167C26.1737 22.6885 25.9664 23.1889 25.5977 23.5576C25.2289 23.9262 24.7285 24.1338 24.207 24.1338H18.374C17.9543 24.1338 17.6271 23.9251 17.4102 23.7354C17.188 23.5409 16.9959 23.2922 16.833 23.0479C16.5079 22.5601 16.1926 21.9262 15.9082 21.3574C15.6094 20.7598 15.3411 20.227 15.083 19.8398C15.0025 19.719 14.9318 19.6294 14.874 19.5635C14.8163 19.6294 14.7456 19.719 14.665 19.8398C14.407 20.227 14.1387 20.7598 13.8398 21.3574C13.5555 21.9262 13.2402 22.5601 12.915 23.0479C12.7521 23.2922 12.5601 23.5409 12.3379 23.7354C12.1209 23.9251 11.7937 24.1338 11.374 24.1338H5.54102C5.01958 24.1338 4.51918 23.9262 4.15039 23.5576C3.78165 23.1889 3.5743 22.6885 3.57422 22.167C3.57422 21.377 3.90047 20.5815 4.30664 19.8711C4.72093 19.1465 5.26998 18.423 5.81934 17.7598C6.36812 17.0973 6.94481 16.4628 7.40625 15.9404C7.4466 15.8948 7.48444 15.849 7.52246 15.8057C7.03059 15.7161 6.50103 15.5878 6.00098 15.4092C5.44396 15.2102 4.86672 14.9322 4.41504 14.54C3.95305 14.1388 3.57422 13.5707 3.57422 12.833C3.57433 11.9692 4.00724 11.2355 4.55859 10.6523C5.1117 10.0674 5.84647 9.56433 6.61328 9.14258C7.91927 8.42429 9.43042 7.88091 10.5977 7.54785C10.6571 6.69751 10.8496 5.68297 11.3262 4.79785C11.9544 3.63126 13.0782 2.7002 14.874 2.7002ZM14.874 4.2998C13.7532 4.2998 13.127 4.82743 12.7344 5.55664C12.3129 6.33951 12.1738 7.35564 12.1738 8.16699C12.1737 8.53382 11.9242 8.85324 11.5684 8.94238C10.4456 9.22307 8.76506 9.78577 7.38477 10.5449C6.69336 10.9252 6.11549 11.3334 5.7207 11.751C5.32435 12.1702 5.17394 12.5304 5.17383 12.833C5.17383 12.9703 5.23315 13.1317 5.46387 13.332C5.70487 13.5413 6.07534 13.7377 6.53906 13.9033C7.46711 14.2347 8.54241 14.3662 9.04102 14.3662C9.32581 14.3663 9.58925 14.5184 9.73242 14.7646C9.87555 15.0109 9.8772 15.3149 9.73633 15.5625C9.50531 15.9685 9.05854 16.486 8.60449 17C8.123 17.545 7.5788 18.144 7.05176 18.7803C6.52517 19.416 6.04263 20.0576 5.69531 20.665C5.34001 21.2865 5.17383 21.7904 5.17383 22.167C5.17391 22.264 5.21267 22.3571 5.28125 22.4258C5.35001 22.4945 5.44377 22.5332 5.54102 22.5332H11.2812C11.2823 22.5323 11.2841 22.5312 11.2852 22.5303C11.3546 22.4694 11.4545 22.3529 11.583 22.1602C11.8411 21.773 12.1094 21.2402 12.4082 20.6426C12.6926 20.0738 13.0079 19.4399 13.333 18.9521C13.4959 18.7078 13.688 18.4591 13.9102 18.2646C14.1271 18.0749 14.4543 17.8662 14.874 17.8662C15.2937 17.8662 15.6209 18.0749 15.8379 18.2646C16.0601 18.4591 16.2521 18.7078 16.415 18.9521C16.7402 19.4399 17.0555 20.0738 17.3398 20.6426C17.6387 21.2402 17.907 21.773 18.165 22.1602C18.2935 22.3529 18.3934 22.4694 18.4629 22.5303C18.464 22.5312 18.4658 22.5323 18.4668 22.5332H24.207C24.3043 22.5332 24.398 22.4945 24.4668 22.4258C24.5354 22.3571 24.5741 22.264 24.5742 22.167C24.5742 21.7904 24.408 21.2865 24.0527 20.665C23.7054 20.0576 23.2229 19.416 22.6963 18.7803C22.1692 18.144 21.625 17.545 21.1436 17C20.6895 16.486 20.2427 15.9685 20.0117 15.5625C19.8708 15.3149 19.8725 15.0109 20.0156 14.7646C20.1588 14.5184 20.4222 14.3663 20.707 14.3662C21.2056 14.3662 22.2809 14.2347 23.209 13.9033C23.6727 13.7377 24.0432 13.5413 24.2842 13.332C24.5149 13.1317 24.5742 12.9703 24.5742 12.833C24.5741 12.5304 24.4237 12.1702 24.0273 11.751C23.6326 11.3334 23.0547 10.9252 22.3633 10.5449C20.983 9.78577 19.3025 9.22307 18.1797 8.94238C17.8239 8.85324 17.5744 8.53382 17.5742 8.16699C17.5742 7.35564 17.4351 6.33951 17.0137 5.55664C16.621 4.82743 15.9948 4.2998 14.874 4.2998Z" fill="white"/>
</svg>
