<svg width="29" height="28" viewBox="0 0 29 28" fill="none" xmlns="http://www.w3.org/2000/svg">
<path d="M14.1249 3.86719C16.5031 3.86719 18.7842 4.81159 20.4658 6.49316C22.1472 8.17472 23.0917 10.456 23.0917 12.834V20.9688C23.1512 21.5564 23.0296 22.1488 22.7402 22.665C22.4396 23.2011 21.9751 23.6269 21.415 23.8799C20.855 24.1327 20.2287 24.2002 19.6279 24.0713C19.027 23.9423 18.4831 23.6236 18.0761 23.1631C18.0655 23.1511 18.0547 23.1386 18.0449 23.126C17.9397 22.9915 17.8048 22.8825 17.6513 22.8076C17.4978 22.7328 17.3289 22.6943 17.1581 22.6943C16.9874 22.6944 16.8185 22.7328 16.665 22.8076C16.5117 22.8824 16.3775 22.9916 16.2724 23.126C16.0176 23.4519 15.6912 23.7161 15.3193 23.8975C14.9473 24.0788 14.5387 24.1729 14.1249 24.1729C13.7112 24.1728 13.3025 24.0788 12.9306 23.8975C12.5588 23.7161 12.2333 23.4519 11.9785 23.126C11.8733 22.9914 11.7384 22.8825 11.5849 22.8076C11.4313 22.7328 11.2626 22.6943 11.0917 22.6943C10.9209 22.6943 10.7521 22.7328 10.5986 22.8076C10.4451 22.8825 10.3102 22.9914 10.205 23.126C10.1953 23.1385 10.1853 23.1512 10.1748 23.1631C9.76779 23.6235 9.22379 23.9423 8.62299 24.0713C8.02207 24.2002 7.39505 24.1328 6.83491 23.8799C6.27488 23.6269 5.81028 23.201 5.50971 22.665C5.22229 22.1523 5.10147 21.5643 5.15815 20.9805V12.834C5.15815 10.456 6.10365 8.17472 7.7851 6.49316C9.4666 4.81179 11.747 3.86725 14.1249 3.86719ZM14.1249 5.4668C12.1713 5.46686 10.2974 6.24353 8.91596 7.625C7.53472 9.00648 6.75874 10.8804 6.75874 12.834V21C6.75872 21.0331 6.75601 21.0668 6.7519 21.0996C6.71807 21.3701 6.77191 21.645 6.90522 21.8828C7.03855 22.1205 7.24475 22.3096 7.49311 22.4219C7.74167 22.5341 8.0204 22.564 8.28706 22.5068C8.55364 22.4496 8.79494 22.3078 8.97553 22.1035C9.22565 21.795 9.54008 21.5444 9.89741 21.3701C10.2694 21.1887 10.6779 21.0938 11.0917 21.0938C11.5056 21.0938 11.9141 21.1887 12.2861 21.3701C12.658 21.5515 12.9844 21.8146 13.2392 22.1406C13.3443 22.2751 13.4784 22.3841 13.6318 22.459C13.7853 22.5338 13.9542 22.5732 14.1249 22.5732C14.2957 22.5732 14.4646 22.5338 14.6181 22.459C14.7716 22.3841 14.9065 22.2751 15.0117 22.1406C15.2664 21.8149 15.5922 21.5514 15.9638 21.3701C16.3357 21.1888 16.7444 21.0938 17.1581 21.0938C17.572 21.0938 17.9805 21.1888 18.3525 21.3701C18.7115 21.5452 19.0275 21.7969 19.2783 22.1074C19.4584 22.3096 19.698 22.4499 19.9628 22.5068C20.2295 22.5641 20.5082 22.5341 20.7568 22.4219C21.0052 22.3096 21.2113 22.1206 21.3447 21.8828C21.478 21.645 21.5318 21.3702 21.498 21.0996C21.4939 21.0668 21.4921 21.0331 21.4921 21V12.834C21.4921 10.8803 20.7153 9.0065 19.3339 7.625C17.9524 6.24348 16.0787 5.4668 14.1249 5.4668ZM16.0019 15.6768C16.3644 15.4247 16.8628 15.5145 17.1152 15.877C17.3672 16.2394 17.2783 16.7379 16.916 16.9902C16.0972 17.5603 15.1227 17.8662 14.1249 17.8662C13.1274 17.8661 12.1536 17.5602 11.3349 16.9902C10.9725 16.7379 10.8836 16.2395 11.1357 15.877C11.3881 15.5144 11.8864 15.4245 12.249 15.6768C12.7994 16.06 13.4542 16.2656 14.1249 16.2656C14.7957 16.2656 15.4514 16.06 16.0019 15.6768ZM11.8857 10.8711C12.2889 10.9122 12.6035 11.2529 12.6035 11.667C12.6033 12.0809 12.2888 12.4218 11.8857 12.4629L11.8037 12.4668H11.7919C11.3502 12.4668 10.9923 12.1087 10.9921 11.667C10.9921 11.2252 11.3501 10.8672 11.7919 10.8672H11.8037L11.8857 10.8711ZM16.5517 10.8711C16.9553 10.9119 17.2705 11.2527 17.2705 11.667C17.2703 12.0812 16.9552 12.4221 16.5517 12.4629L16.4706 12.4668H16.4589C16.0172 12.4668 15.6583 12.1087 15.6581 11.667C15.6581 11.2252 16.0171 10.8672 16.4589 10.8672H16.4706L16.5517 10.8711Z" fill="white"/>
</svg>
