<svg width="29" height="28" viewBox="0 0 29 28" fill="none" xmlns="http://www.w3.org/2000/svg">
<path d="M14.374 2.7002C18.5683 2.7002 21.5104 3.20477 23.3398 5.03418C25.1693 6.86359 25.6738 9.80572 25.6738 14C25.6738 18.1943 25.1693 21.1364 23.3398 22.9658C21.5104 24.7952 18.5683 25.2998 14.374 25.2998C10.1797 25.2998 7.23761 24.7952 5.4082 22.9658C3.5788 21.1364 3.07422 18.1943 3.07422 14C3.07422 9.80572 3.5788 6.86359 5.4082 5.03418C7.23761 3.20477 10.1797 2.7002 14.374 2.7002ZM14.374 4.2998C10.1683 4.2998 7.86063 4.84542 6.54004 6.16602C5.21945 7.48661 4.67383 9.79428 4.67383 14C4.67383 18.2057 5.21945 20.5134 6.54004 21.834C7.86063 23.1546 10.1683 23.7002 14.374 23.7002C18.5797 23.7002 20.8874 23.1546 22.208 21.834C23.5286 20.5134 24.0742 18.2057 24.0742 14C24.0742 9.79428 23.5286 7.48661 22.208 6.16602C20.8874 4.84542 18.5797 4.2998 14.374 4.2998ZM14.374 13.2002C14.8159 13.2002 15.1738 13.5582 15.1738 14V17.8662H15.541L15.6221 17.8711C16.0257 17.9119 16.3408 18.2526 16.3408 18.667C16.3407 19.0812 16.0256 19.4221 15.6221 19.4629L15.541 19.4668H14.374C13.9323 19.4668 13.5744 19.1087 13.5742 18.667V14.7998H13.207C12.7654 14.7996 12.4072 14.4417 12.4072 14C12.4072 13.5583 12.7654 13.2004 13.207 13.2002H14.374ZM14.4678 9.7041C14.871 9.7452 15.1855 10.0859 15.1855 10.5C15.1855 10.9141 14.871 11.2548 14.4678 11.2959L14.3857 11.2998H14.374C13.9322 11.2998 13.5742 10.9418 13.5742 10.5C13.5742 10.0582 13.9322 9.7002 14.374 9.7002H14.3857L14.4678 9.7041Z" fill="white"/>
</svg>
